<?xml version="1.0" encoding="UTF-8"?>
<svg xmlns="http://www.w3.org/2000/svg" viewBox="0 0 1200 630" width="1200" height="630">
  <rect width="1200" height="630" fill="#FEFBF0"/>
  <line x1="80" y1="80" x2="1120" y2="80" stroke="#0F2942" stroke-width="3" stroke-dasharray="14 10"/>
  <line x1="80" y1="475" x2="1120" y2="475" stroke="#0F2942" stroke-width="2" stroke-dasharray="10 8"/>
  
  <rect x="80" y="245" width="640" height="50" fill="#3DD485" opacity="0.45"/>
  <g fill="#0F2942">
  <path d="M50 0V680H349Q475 680 547.5 622.0Q620 564 620 465Q620 358 542 307Q580 275 595 211L645 0H434L399 174Q392 209 379.5 220.0Q367 231 335 231H254V0ZM345 520H254V386H340Q411 386 411.0 453.0Q411 520 345 520Z" transform="translate(80.00,290) scale(0.1700,-0.1700)"/>
  <path d="M578 179Q558 87 484.0 34.0Q410 -19 304 -19Q173 -19 96.5 59.5Q20 138 20 271Q20 408 95.5 485.0Q171 562 298.0 562.0Q425 562 499.5 484.5Q574 407 574 272V230H219Q233 132 304 132Q355 132 375 179ZM222 332H374Q357 411 298.0 411.0Q239 411 222 332Z" transform="translate(186.05,290) scale(0.1700,-0.1700)"/>
  <path d="M546 342H352Q343 407 293 407Q219 407 219 271Q219 136 298 136Q343 136 355 189H549Q532 89 463.5 35.0Q395 -19 294 -19Q168 -19 94.0 59.5Q20 138 20 271Q20 408 94.0 485.0Q168 562 293 562Q394 562 463.0 505.5Q532 449 546 342Z" transform="translate(280.37,290) scale(0.1700,-0.1700)"/>
  <path d="M298 -19Q170 -19 95.0 59.5Q20 138 20 271Q20 408 95.5 485.0Q171 562 298 562Q426 562 501.0 483.5Q576 405 576 271Q576 135 500.5 58.0Q425 -19 298 -19ZM377 271Q377 407 298.0 407.0Q219 407 219 271Q219 136 298.0 136.0Q377 136 377 271Z" transform="translate(369.59,290) scale(0.1700,-0.1700)"/>
  <path d="M40 0V543H234V472Q281 562 365 562Q404 562 420 543V381Q390 387 356 387Q234 387 234 266V0Z" transform="translate(463.91,290) scale(0.1700,-0.1700)"/>
  <path d="M65 189V397H5V543H65V669H259V543H365V397H259V220Q259 183 273.5 165.0Q288 147 329 147H365V0Q323 -19 251 -19Q158 -19 111.5 34.5Q65 88 65 189Z" transform="translate(530.01,290) scale(0.1700,-0.1700)"/>
  <path d="M578 179Q558 87 484.0 34.0Q410 -19 304 -19Q173 -19 96.5 59.5Q20 138 20 271Q20 408 95.5 485.0Q171 562 298.0 562.0Q425 562 499.5 484.5Q574 407 574 272V230H219Q233 132 304 132Q355 132 375 179ZM222 332H374Q357 411 298.0 411.0Q239 411 222 332Z" transform="translate(588.46,290) scale(0.1700,-0.1700)"/>
  </g>
  
  <g fill="#0F2942">
  <path d="M164 512Q164 476 186.5 453.0Q209 430 245.5 419.0Q282 408 326.0 400.0Q370 392 414.0 380.0Q458 368 494.5 349.0Q531 330 553.5 291.0Q576 252 576 196Q576 98 504.5 42.5Q433 -13 318.0 -13.0Q203 -13 129.5 40.0Q56 93 35 198H152Q181 79 319 79Q387 79 424.0 106.5Q461 134 461 181Q461 220 438.5 244.5Q416 269 379.5 281.0Q343 293 299.0 302.0Q255 311 211.0 322.5Q167 334 130.5 353.0Q94 372 71.5 410.0Q49 448 49 503Q49 583 113.5 638.0Q178 693 290 693Q396 693 468.5 640.0Q541 587 558 480H439Q412 601 287 601Q229 601 196.5 577.0Q164 553 164 512Z" transform="translate(80.00,370) scale(0.0380,-0.0380)"/>
  <path d="M401 221V533H507V0H401V72Q349 -13 242 -13Q159 -13 112.0 35.5Q65 84 65 177V533H172V199Q172 76 275 76Q331 76 366.0 119.5Q401 163 401 221Z" transform="translate(103.22,370) scale(0.0380,-0.0380)"/>
  <path d="M166 359H59Q72 448 131.5 497.5Q191 547 290 547Q396 547 451.5 490.5Q507 434 507 338V130Q507 44 525 0H413Q403 26 401 78Q369 33 321.5 10.0Q274 -13 223 -13Q140 -13 90.5 26.0Q41 65 41 140Q41 254 161 294Q248 323 400 325V337Q400 457 282 457Q182 457 166 359ZM149 144Q149 110 174.5 90.5Q200 71 243 71Q309 71 354.5 117.0Q400 163 400 228V252Q257 251 203.0 223.0Q149 195 149 144Z" transform="translate(124.95,370) scale(0.0380,-0.0380)"/>
  <path d="M538 174Q517 83 452.0 35.0Q387 -13 292 -13Q174 -13 106.5 61.5Q39 136 39 266Q39 400 105.5 473.5Q172 547 287.0 547.0Q402 547 468.0 473.5Q534 400 534 272V246H148Q153 164 190.0 120.0Q227 76 292 76Q399 76 426 174ZM287 458Q171 458 151 319H423Q413 387 378.5 422.5Q344 458 287 458Z" transform="translate(154.29,370) scale(0.0380,-0.0380)"/>
  <path d="M265 -13Q159 -13 99.0 61.0Q39 135 39 266Q39 400 99.5 473.5Q160 547 265 547Q359 547 410 473V720H517V0H410V65Q357 -13 265 -13ZM279 77Q343 77 376.5 125.5Q410 174 410 266Q410 357 375.5 407.0Q341 457 279 457Q215 457 181.5 407.5Q148 358 148 266Q148 175 182.5 126.0Q217 77 279 77Z" transform="translate(176.18,370) scale(0.0380,-0.0380)"/>
  <path d="M65 599V720H172V599ZM65 0V533H172V0Z" transform="translate(198.26,370) scale(0.0380,-0.0380)"/>
  <path d="M286 -131Q286 -113 268.5 -105.0Q251 -97 207 -92L250 -11Q151 0 95.0 73.5Q39 147 39 266Q39 400 104.5 473.5Q170 547 285 547Q377 547 440.0 495.5Q503 444 516 347H409Q400 402 367.0 429.5Q334 457 285 457Q218 457 183.0 407.5Q148 358 148 266Q148 175 184.5 125.5Q221 76 288 76Q389 76 413 179H519Q504 89 448.5 41.0Q393 -7 309 -12L286 -54Q372 -65 372 -126Q372 -218 168 -221V-173Q286 -170 286 -131Z" transform="translate(207.22,370) scale(0.0380,-0.0380)"/>
  <path d="M192 599H130Q130 665 156.0 692.5Q182 720 217 720Q254 720 295.0 692.0Q336 664 350 664Q382 664 384 720H446Q446 654 420.5 626.5Q395 599 360 599Q323 599 282.0 626.5Q241 654 226 654Q196 654 192 599ZM166 359H59Q72 448 131.5 497.5Q191 547 290 547Q396 547 451.5 490.5Q507 434 507 338V130Q507 44 525 0H413Q403 26 401 78Q369 33 321.5 10.0Q274 -13 223 -13Q140 -13 90.5 26.0Q41 65 41 140Q41 254 161 294Q248 323 400 325V337Q400 457 282 457Q182 457 166 359ZM149 144Q149 110 174.5 90.5Q200 71 243 71Q309 71 354.5 117.0Q400 163 400 228V252Q257 251 203.0 223.0Q149 195 149 144Z" transform="translate(228.28,370) scale(0.0380,-0.0380)"/>
  <path d="M39 266Q39 400 105.5 473.5Q172 547 288.0 547.0Q404 547 470.5 472.0Q537 397 537 266Q537 133 470.5 60.0Q404 -13 288.0 -13.0Q172 -13 105.5 61.5Q39 136 39 266ZM288 77Q356 77 392.0 125.5Q428 174 428.0 266.0Q428 358 391.5 407.5Q355 457 288 457Q220 457 184.0 408.0Q148 359 148 266Q148 175 184.5 126.0Q221 77 288 77Z" transform="translate(250.16,370) scale(0.0380,-0.0380)"/>
  <path d="M56 0V123H180V57Q180 -69 124 -168H66Q106 -68 106 0Z" transform="translate(272.05,370) scale(0.0380,-0.0380)"/>
  <path d="M79 159V450H7V533H79V656H186V533H301V450H186V165Q186 117 205.0 96.0Q224 75 278 75H299V-3Q279 -13 232 -13Q79 -13 79 159Z" transform="translate(288.47,370) scale(0.0380,-0.0380)"/>
  <path d="M39 266Q39 400 105.5 473.5Q172 547 288.0 547.0Q404 547 470.5 472.0Q537 397 537 266Q537 133 470.5 60.0Q404 -13 288.0 -13.0Q172 -13 105.5 61.5Q39 136 39 266ZM288 77Q356 77 392.0 125.5Q428 174 428.0 266.0Q428 358 391.5 407.5Q355 457 288 457Q220 457 184.0 408.0Q148 359 148 266Q148 175 184.5 126.0Q221 77 288 77Z" transform="translate(300.48,370) scale(0.0380,-0.0380)"/>
  <path d="M265 -13Q159 -13 99.0 61.0Q39 135 39 266Q39 400 99.5 473.5Q160 547 265 547Q359 547 410 473V720H517V0H410V65Q357 -13 265 -13ZM279 77Q343 77 376.5 125.5Q410 174 410 266Q410 357 375.5 407.0Q341 457 279 457Q215 457 181.5 407.5Q148 358 148 266Q148 175 182.5 126.0Q217 77 279 77Z" transform="translate(322.36,370) scale(0.0380,-0.0380)"/>
  <path d="M39 266Q39 400 105.5 473.5Q172 547 288.0 547.0Q404 547 470.5 472.0Q537 397 537 266Q537 133 470.5 60.0Q404 -13 288.0 -13.0Q172 -13 105.5 61.5Q39 136 39 266ZM288 77Q356 77 392.0 125.5Q428 174 428.0 266.0Q428 358 391.5 407.5Q355 457 288 457Q220 457 184.0 408.0Q148 359 148 266Q148 175 184.5 126.0Q221 77 288 77Z" transform="translate(344.44,370) scale(0.0380,-0.0380)"/>
  <path d="M265 -13Q159 -13 99.0 61.0Q39 135 39 266Q39 400 99.5 473.5Q160 547 265 547Q359 547 410 473V720H517V0H410V65Q357 -13 265 -13ZM279 77Q343 77 376.5 125.5Q410 174 410 266Q410 357 375.5 407.0Q341 457 279 457Q215 457 181.5 407.5Q148 358 148 266Q148 175 182.5 126.0Q217 77 279 77Z" transform="translate(373.78,370) scale(0.0380,-0.0380)"/>
  <path d="M65 599V720H172V599ZM65 0V533H172V0Z" transform="translate(395.86,370) scale(0.0380,-0.0380)"/>
  <path d="M166 359H59Q72 448 131.5 497.5Q191 547 290 547Q396 547 451.5 490.5Q507 434 507 338V130Q507 44 525 0H413Q403 26 401 78Q369 33 321.5 10.0Q274 -13 223 -13Q140 -13 90.5 26.0Q41 65 41 140Q41 254 161 294Q248 323 400 325V337Q400 457 282 457Q182 457 166 359ZM149 144Q149 110 174.5 90.5Q200 71 243 71Q309 71 354.5 117.0Q400 163 400 228V252Q257 251 203.0 223.0Q149 195 149 144Z" transform="translate(404.82,370) scale(0.0380,-0.0380)"/>
  <path d="M56 0V123H180V57Q180 -69 124 -168H66Q106 -68 106 0Z" transform="translate(426.71,370) scale(0.0380,-0.0380)"/>
  <path d="M166 359H59Q72 448 131.5 497.5Q191 547 290 547Q396 547 451.5 490.5Q507 434 507 338V130Q507 44 525 0H413Q403 26 401 78Q369 33 321.5 10.0Q274 -13 223 -13Q140 -13 90.5 26.0Q41 65 41 140Q41 254 161 294Q248 323 400 325V337Q400 457 282 457Q182 457 166 359ZM149 144Q149 110 174.5 90.5Q200 71 243 71Q309 71 354.5 117.0Q400 163 400 228V252Q257 251 203.0 223.0Q149 195 149 144Z" transform="translate(443.13,370) scale(0.0380,-0.0380)"/>
  <path d="M65 0V533H172V462Q226 547 333 547Q418 547 465.5 498.0Q513 449 513 356V0H407V334Q407 458 300 458Q242 458 207.0 415.0Q172 372 172 313V0Z" transform="translate(465.02,370) scale(0.0380,-0.0380)"/>
  <path d="M79 159V450H7V533H79V656H186V533H301V450H186V165Q186 117 205.0 96.0Q224 75 278 75H299V-3Q279 -13 232 -13Q79 -13 79 159Z" transform="translate(486.98,370) scale(0.0380,-0.0380)"/>
  <path d="M538 174Q517 83 452.0 35.0Q387 -13 292 -13Q174 -13 106.5 61.5Q39 136 39 266Q39 400 105.5 473.5Q172 547 287.0 547.0Q402 547 468.0 473.5Q534 400 534 272V246H148Q153 164 190.0 120.0Q227 76 292 76Q399 76 426 174ZM287 458Q171 458 151 319H423Q413 387 378.5 422.5Q344 458 287 458Z" transform="translate(498.99,370) scale(0.0380,-0.0380)"/>
  <path d="M150 393Q150 361 175.5 343.0Q201 325 238.5 319.0Q276 313 320.5 303.5Q365 294 402.5 282.0Q440 270 465.5 237.5Q491 205 491 154Q491 79 429.5 33.0Q368 -13 271 -13Q172 -13 109.0 34.0Q46 81 31 174H138Q146 124 181.5 97.0Q217 70 274 70Q327 70 355.5 91.0Q384 112 384 147Q384 178 359.0 196.0Q334 214 297.0 219.5Q260 225 216.0 234.5Q172 244 135.0 256.5Q98 269 73.0 302.5Q48 336 48 387Q48 454 100.0 500.5Q152 547 248 547Q342 547 401.0 501.0Q460 455 472 359H365Q349 462 243 462Q200 462 175.0 443.0Q150 424 150 393Z" transform="translate(520.88,370) scale(0.0380,-0.0380)"/>
  <path d="M265 -13Q159 -13 99.0 61.0Q39 135 39 266Q39 400 99.5 473.5Q160 547 265 547Q359 547 410 473V720H517V0H410V65Q357 -13 265 -13ZM279 77Q343 77 376.5 125.5Q410 174 410 266Q410 357 375.5 407.0Q341 457 279 457Q215 457 181.5 407.5Q148 358 148 266Q148 175 182.5 126.0Q217 77 279 77Z" transform="translate(548.20,370) scale(0.0380,-0.0380)"/>
  <path d="M39 266Q39 400 105.5 473.5Q172 547 288.0 547.0Q404 547 470.5 472.0Q537 397 537 266Q537 133 470.5 60.0Q404 -13 288.0 -13.0Q172 -13 105.5 61.5Q39 136 39 266ZM288 77Q356 77 392.0 125.5Q428 174 428.0 266.0Q428 358 391.5 407.5Q355 457 288 457Q220 457 184.0 408.0Q148 359 148 266Q148 175 184.5 126.0Q221 77 288 77Z" transform="translate(570.28,370) scale(0.0380,-0.0380)"/>
  <path d="M516 347H409Q400 402 367.0 429.5Q334 457 285 457Q218 457 183.0 407.5Q148 358 148 266Q148 175 184.5 125.5Q221 76 288 76Q389 76 413 179H519Q502 83 440.0 35.0Q378 -13 286 -13Q171 -13 105.0 61.5Q39 136 39 266Q39 400 104.5 473.5Q170 547 285 547Q377 547 440.0 495.5Q503 444 516 347Z" transform="translate(599.61,370) scale(0.0380,-0.0380)"/>
  <path d="M166 359H59Q72 448 131.5 497.5Q191 547 290 547Q396 547 451.5 490.5Q507 434 507 338V130Q507 44 525 0H413Q403 26 401 78Q369 33 321.5 10.0Q274 -13 223 -13Q140 -13 90.5 26.0Q41 65 41 140Q41 254 161 294Q248 323 400 325V337Q400 457 282 457Q182 457 166 359ZM149 144Q149 110 174.5 90.5Q200 71 243 71Q309 71 354.5 117.0Q400 163 400 228V252Q257 251 203.0 223.0Q149 195 149 144Z" transform="translate(620.66,370) scale(0.0380,-0.0380)"/>
  <path d="M5 450V533H77V561Q77 733 226 733Q263 733 285 723V651H275Q222 651 202.5 629.5Q183 608 183 560V533H285V450H183V0H77V450Z" transform="translate(642.55,370) scale(0.0380,-0.0380)"/>
  <path d="M234 599 322 720H448L334 599ZM538 174Q517 83 452.0 35.0Q387 -13 292 -13Q174 -13 106.5 61.5Q39 136 39 266Q39 400 105.5 473.5Q172 547 287.0 547.0Q402 547 468.0 473.5Q534 400 534 272V246H148Q153 164 190.0 120.0Q227 76 292 76Q399 76 426 174ZM287 458Q171 458 151 319H423Q413 387 378.5 422.5Q344 458 287 458Z" transform="translate(653.42,370) scale(0.0380,-0.0380)"/>
  <path d="M56 0V123H180V0Z" transform="translate(675.31,370) scale(0.0380,-0.0380)"/>
  </g>
  <g fill="#0F2942" opacity="0.65">
  <path d="M264 0V602H31V680H589V602H356V0Z" transform="translate(80.00,425) scale(0.0280,-0.0280)"/>
  <path d="M408 217V531H496V0H408V72Q354 -12 247 -12Q163 -12 116.5 36.5Q70 85 70 176V531H158V194Q158 132 186.0 97.5Q214 63 271 63Q332 63 370.0 109.5Q408 156 408 217Z" transform="translate(97.36,425) scale(0.0280,-0.0280)"/>
  <path d="M269 -12Q163 -12 103.0 61.5Q43 135 43 265Q43 398 103.0 471.0Q163 544 269 544Q364 544 418 469V720H506V0H418V67Q363 -12 269 -12ZM275 64Q345 64 381.5 115.5Q418 167 418 265Q418 362 380.5 415.0Q343 468 275 468Q206 468 169.5 415.5Q133 363 133 265Q133 169 170.0 116.5Q207 64 275 64Z" transform="translate(113.21,425) scale(0.0280,-0.0280)"/>
  <path d="M286 -12Q172 -12 107.5 61.5Q43 135 43 265Q43 398 108.0 471.0Q173 544 286 544Q400 544 464.5 469.5Q529 395 529 265Q529 132 464.0 60.0Q399 -12 286 -12ZM286 64Q360 64 399.5 115.5Q439 167 439 265Q439 362 399.0 415.0Q359 468 286 468Q212 468 172.5 415.5Q133 363 133 265Q133 169 173.0 116.5Q213 64 286 64Z" transform="translate(129.34,425) scale(0.0280,-0.0280)"/>
  <path d="M269 -12Q163 -12 103.0 61.5Q43 135 43 265Q43 398 103.0 471.0Q163 544 269 544Q364 544 418 469V531H506V-220H418V67Q363 -12 269 -12ZM275 64Q345 64 381.5 115.5Q418 167 418 265Q418 362 380.5 415.0Q343 468 275 468Q206 468 169.5 415.5Q133 363 133 265Q133 169 170.0 116.5Q207 64 275 64Z" transform="translate(150.95,425) scale(0.0280,-0.0280)"/>
  <path d="M408 217V531H496V0H408V72Q354 -12 247 -12Q163 -12 116.5 36.5Q70 85 70 176V531H158V194Q158 132 186.0 97.5Q214 63 271 63Q332 63 370.0 109.5Q408 156 408 217Z" transform="translate(167.11,425) scale(0.0280,-0.0280)"/>
  <path d="M529 173Q508 82 445.5 35.0Q383 -12 290 -12Q174 -12 108.5 61.5Q43 135 43 265Q43 399 107.5 471.5Q172 544 285 544Q397 544 461.0 471.5Q525 399 525 272V250H133Q137 161 177.5 112.5Q218 64 290 64Q409 64 437 173ZM285 468Q156 468 136 316H433Q424 389 385.5 428.5Q347 468 285 468Z" transform="translate(182.96,425) scale(0.0280,-0.0280)"/>
  <path d="M151 358H63Q76 447 133.5 495.5Q191 544 287 544Q391 544 444.5 488.5Q498 433 498 337V128Q498 39 517 0H424Q412 26 410 84Q378 36 329.0 12.0Q280 -12 229 -12Q144 -12 94.5 27.0Q45 66 45 140Q45 253 163 292Q251 321 410 323V335Q410 468 279 468Q169 468 151 358ZM135 142Q135 106 163.0 85.0Q191 64 238 64Q311 64 360.5 113.5Q410 163 410 232V257Q252 256 193.5 226.5Q135 197 135 142Z" transform="translate(204.57,425) scale(0.0280,-0.0280)"/>
  <path d="M509 348H421Q411 407 374.0 437.5Q337 468 283 468Q210 468 171.5 416.0Q133 364 133 265Q133 168 173.0 115.5Q213 63 286 63Q340 63 376.0 92.0Q412 121 425 177H513Q496 81 435.5 34.5Q375 -12 284 -12Q171 -12 107.0 62.0Q43 136 43 265Q43 399 107.0 471.5Q171 544 283 544Q374 544 435.5 493.5Q497 443 509 348Z" transform="translate(220.59,425) scale(0.0280,-0.0280)"/>
  <path d="M286 -12Q172 -12 107.5 61.5Q43 135 43 265Q43 398 108.0 471.0Q173 544 286 544Q400 544 464.5 469.5Q529 395 529 265Q529 132 464.0 60.0Q399 -12 286 -12ZM286 64Q360 64 399.5 115.5Q439 167 439 265Q439 362 399.0 415.0Q359 468 286 468Q212 468 172.5 415.5Q133 363 133 265Q133 169 173.0 116.5Q213 64 286 64Z" transform="translate(236.04,425) scale(0.0280,-0.0280)"/>
  <path d="M70 0V531H158V459Q213 544 322 544Q408 544 455.0 495.0Q502 446 502 355V0H414V337Q414 399 385.0 434.0Q356 469 298 469Q235 469 196.5 422.0Q158 375 158 314V0Z" transform="translate(252.06,425) scale(0.0280,-0.0280)"/>
  <path d="M82 153V461H8V531H82V653H170V531H287V461H170V153Q170 103 190.5 81.0Q211 59 267 59H285V-4Q269 -12 228 -12Q154 -12 118.0 28.5Q82 69 82 153Z" transform="translate(268.08,425) scale(0.0280,-0.0280)"/>
  <path d="M529 173Q508 82 445.5 35.0Q383 -12 290 -12Q174 -12 108.5 61.5Q43 135 43 265Q43 399 107.5 471.5Q172 544 285 544Q397 544 461.0 471.5Q525 399 525 272V250H133Q137 161 177.5 112.5Q218 64 290 64Q409 64 437 173ZM285 468Q156 468 136 316H433Q424 389 385.5 428.5Q347 468 285 468Z" transform="translate(276.50,425) scale(0.0280,-0.0280)"/>
  <path d="M509 348H421Q411 407 374.0 437.5Q337 468 283 468Q210 468 171.5 416.0Q133 364 133 265Q133 168 173.0 115.5Q213 63 286 63Q340 63 376.0 92.0Q412 121 425 177H513Q496 81 435.5 34.5Q375 -12 284 -12Q171 -12 107.0 62.0Q43 136 43 265Q43 399 107.0 471.5Q171 544 283 544Q374 544 435.5 493.5Q497 443 509 348Z" transform="translate(292.52,425) scale(0.0280,-0.0280)"/>
  <path d="M529 173Q508 82 445.5 35.0Q383 -12 290 -12Q174 -12 108.5 61.5Q43 135 43 265Q43 399 107.5 471.5Q172 544 285 544Q397 544 461.0 471.5Q525 399 525 272V250H133Q137 161 177.5 112.5Q218 64 290 64Q409 64 437 173ZM285 468Q156 468 136 316H433Q424 389 385.5 428.5Q347 468 285 468Z" transform="translate(307.98,425) scale(0.0280,-0.0280)"/>
  <path d="M70 0V531H158V459Q213 544 322 544Q408 544 455.0 495.0Q502 446 502 355V0H414V337Q414 399 385.0 434.0Q356 469 298 469Q235 469 196.5 422.0Q158 375 158 314V0Z" transform="translate(329.59,425) scale(0.0280,-0.0280)"/>
  <path d="M286 -12Q172 -12 107.5 61.5Q43 135 43 265Q43 398 108.0 471.0Q173 544 286 544Q400 544 464.5 469.5Q529 395 529 265Q529 132 464.0 60.0Q399 -12 286 -12ZM286 64Q360 64 399.5 115.5Q439 167 439 265Q439 362 399.0 415.0Q359 468 286 468Q212 468 172.5 415.5Q133 363 133 265Q133 169 173.0 116.5Q213 64 286 64Z" transform="translate(345.61,425) scale(0.0280,-0.0280)"/>
  <path d="M70 0V531H158V463Q209 544 310 544Q423 544 461 450Q514 544 625 544Q707 544 752.5 495.0Q798 446 798 355V0H710V337Q710 469 606 469Q549 469 513.5 422.0Q478 375 478 314V0H390V337Q390 469 286 469Q229 469 193.5 422.0Q158 375 158 314V0Z" transform="translate(367.22,425) scale(0.0280,-0.0280)"/>
  <path d="M408 217V531H496V0H408V72Q354 -12 247 -12Q163 -12 116.5 36.5Q70 85 70 176V531H158V194Q158 132 186.0 97.5Q214 63 271 63Q332 63 370.0 109.5Q408 156 408 217Z" transform="translate(391.53,425) scale(0.0280,-0.0280)"/>
  <path d="M70 0V531H158V459Q213 544 322 544Q408 544 455.0 495.0Q502 446 502 355V0H414V337Q414 399 385.0 434.0Q356 469 298 469Q235 469 196.5 422.0Q158 375 158 314V0Z" transform="translate(407.38,425) scale(0.0280,-0.0280)"/>
  <path d="M269 -12Q163 -12 103.0 61.5Q43 135 43 265Q43 398 103.0 471.0Q163 544 269 544Q364 544 418 469V720H506V0H418V67Q363 -12 269 -12ZM275 64Q345 64 381.5 115.5Q418 167 418 265Q418 362 380.5 415.0Q343 468 275 468Q206 468 169.5 415.5Q133 363 133 265Q133 169 170.0 116.5Q207 64 275 64Z" transform="translate(423.39,425) scale(0.0280,-0.0280)"/>
  <path d="M286 -12Q172 -12 107.5 61.5Q43 135 43 265Q43 398 108.0 471.0Q173 544 286 544Q400 544 464.5 469.5Q529 395 529 265Q529 132 464.0 60.0Q399 -12 286 -12ZM286 64Q360 64 399.5 115.5Q439 167 439 265Q439 362 399.0 415.0Q359 468 286 468Q212 468 172.5 415.5Q133 363 133 265Q133 169 173.0 116.5Q213 64 286 64Z" transform="translate(439.52,425) scale(0.0280,-0.0280)"/>
  <path d="M60 0V108H168V0Z" transform="translate(455.54,425) scale(0.0280,-0.0280)"/>
  <path d="M565 192Q565 96 495.5 42.0Q426 -12 314 -12Q203 -12 131.5 39.5Q60 91 38 192H134Q168 67 315 67Q390 67 430.5 97.5Q471 128 471 180Q471 222 448.0 249.0Q425 276 388.0 288.5Q351 301 306.5 309.5Q262 318 218.0 329.5Q174 341 137.0 359.0Q100 377 77.0 414.5Q54 452 54 508Q54 585 116.0 638.5Q178 692 286 692Q389 692 459.0 640.5Q529 589 547 484H450Q420 613 284 613Q220 613 184.0 586.0Q148 559 148.0 514.0Q148 469 179.0 442.5Q210 416 256.0 407.0Q302 398 356.5 385.5Q411 373 457.0 357.0Q503 341 534.0 299.0Q565 257 565 192Z" transform="translate(467.52,425) scale(0.0280,-0.0280)"/>
  <path d="M238 602 332 720H444L324 602ZM286 -12Q172 -12 107.5 61.5Q43 135 43 265Q43 398 108.0 471.0Q173 544 286 544Q400 544 464.5 469.5Q529 395 529 265Q529 132 464.0 60.0Q399 -12 286 -12ZM286 64Q360 64 399.5 115.5Q439 167 439 265Q439 362 399.0 415.0Q359 468 286 468Q212 468 172.5 415.5Q133 363 133 265Q133 169 173.0 116.5Q213 64 286 64Z" transform="translate(484.40,425) scale(0.0280,-0.0280)"/>
  <path d="M286 -12Q172 -12 107.5 61.5Q43 135 43 265Q43 398 108.0 471.0Q173 544 286 544Q400 544 464.5 469.5Q529 395 529 265Q529 132 464.0 60.0Q399 -12 286 -12ZM286 64Q360 64 399.5 115.5Q439 167 439 265Q439 362 399.0 415.0Q359 468 286 468Q212 468 172.5 415.5Q133 363 133 265Q133 169 173.0 116.5Q213 64 286 64Z" transform="translate(506.02,425) scale(0.0280,-0.0280)"/>
  <path d="M269 -12Q163 -12 103.0 61.5Q43 135 43 265Q43 398 103.0 471.0Q163 544 269 544Q364 544 418 469V531H506V-220H418V67Q363 -12 269 -12ZM275 64Q345 64 381.5 115.5Q418 167 418 265Q418 362 380.5 415.0Q343 468 275 468Q206 468 169.5 415.5Q133 363 133 265Q133 169 170.0 116.5Q207 64 275 64Z" transform="translate(527.64,425) scale(0.0280,-0.0280)"/>
  <path d="M408 217V531H496V0H408V72Q354 -12 247 -12Q163 -12 116.5 36.5Q70 85 70 176V531H158V194Q158 132 186.0 97.5Q214 63 271 63Q332 63 370.0 109.5Q408 156 408 217Z" transform="translate(543.79,425) scale(0.0280,-0.0280)"/>
  <path d="M529 173Q508 82 445.5 35.0Q383 -12 290 -12Q174 -12 108.5 61.5Q43 135 43 265Q43 399 107.5 471.5Q172 544 285 544Q397 544 461.0 471.5Q525 399 525 272V250H133Q137 161 177.5 112.5Q218 64 290 64Q409 64 437 173ZM285 468Q156 468 136 316H433Q424 389 385.5 428.5Q347 468 285 468Z" transform="translate(559.64,425) scale(0.0280,-0.0280)"/>
  <path d="M70 602V720H158V602ZM70 0V531H158V0Z" transform="translate(581.26,425) scale(0.0280,-0.0280)"/>
  <path d="M70 0V531H158V463Q209 544 310 544Q423 544 461 450Q514 544 625 544Q707 544 752.5 495.0Q798 446 798 355V0H710V337Q710 469 606 469Q549 469 513.5 422.0Q478 375 478 314V0H390V337Q390 469 286 469Q229 469 193.5 422.0Q158 375 158 314V0Z" transform="translate(587.64,425) scale(0.0280,-0.0280)"/>
  <path d="M159 -220H71V531H159V465Q214 544 308 544Q414 544 474.0 470.5Q534 397 534 267Q534 134 474.0 61.0Q414 -12 308 -12Q213 -12 159 63ZM302 468Q232 468 195.5 416.5Q159 365 159 267Q159 170 196.5 117.0Q234 64 302 64Q371 64 407.5 116.5Q444 169 444 267Q444 363 407.0 415.5Q370 468 302 468Z" transform="translate(611.94,425) scale(0.0280,-0.0280)"/>
  <path d="M286 -12Q172 -12 107.5 61.5Q43 135 43 265Q43 398 108.0 471.0Q173 544 286 544Q400 544 464.5 469.5Q529 395 529 265Q529 132 464.0 60.0Q399 -12 286 -12ZM286 64Q360 64 399.5 115.5Q439 167 439 265Q439 362 399.0 415.0Q359 468 286 468Q212 468 172.5 415.5Q133 363 133 265Q133 169 173.0 116.5Q213 64 286 64Z" transform="translate(628.10,425) scale(0.0280,-0.0280)"/>
  <path d="M70 0V531H158V449Q211 544 315 544Q349 544 365 531V452Q344 459 310 459Q233 459 195.5 415.5Q158 372 158 297V0Z" transform="translate(644.12,425) scale(0.0280,-0.0280)"/>
  <path d="M82 153V461H8V531H82V653H170V531H287V461H170V153Q170 103 190.5 81.0Q211 59 267 59H285V-4Q269 -12 228 -12Q154 -12 118.0 28.5Q82 69 82 153Z" transform="translate(654.56,425) scale(0.0280,-0.0280)"/>
  <path d="M151 358H63Q76 447 133.5 495.5Q191 544 287 544Q391 544 444.5 488.5Q498 433 498 337V128Q498 39 517 0H424Q412 26 410 84Q378 36 329.0 12.0Q280 -12 229 -12Q144 -12 94.5 27.0Q45 66 45 140Q45 253 163 292Q251 321 410 323V335Q410 468 279 468Q169 468 151 358ZM135 142Q135 106 163.0 85.0Q191 64 238 64Q311 64 360.5 113.5Q410 163 410 232V257Q252 256 193.5 226.5Q135 197 135 142Z" transform="translate(662.99,425) scale(0.0280,-0.0280)"/>
  <path d="M159 -220H71V531H159V465Q214 544 308 544Q414 544 474.0 470.5Q534 397 534 267Q534 134 474.0 61.0Q414 -12 308 -12Q213 -12 159 63ZM302 468Q232 468 195.5 416.5Q159 365 159 267Q159 170 196.5 117.0Q234 64 302 64Q371 64 407.5 116.5Q444 169 444 267Q444 363 407.0 415.5Q370 468 302 468Z" transform="translate(684.60,425) scale(0.0280,-0.0280)"/>
  <path d="M70 0V531H158V449Q211 544 315 544Q349 544 365 531V452Q344 459 310 459Q233 459 195.5 415.5Q158 372 158 297V0Z" transform="translate(700.76,425) scale(0.0280,-0.0280)"/>
  <path d="M151 358H63Q76 447 133.5 495.5Q191 544 287 544Q391 544 444.5 488.5Q498 433 498 337V128Q498 39 517 0H424Q412 26 410 84Q378 36 329.0 12.0Q280 -12 229 -12Q144 -12 94.5 27.0Q45 66 45 140Q45 253 163 292Q251 321 410 323V335Q410 468 279 468Q169 468 151 358ZM135 142Q135 106 163.0 85.0Q191 64 238 64Q311 64 360.5 113.5Q410 163 410 232V257Q252 256 193.5 226.5Q135 197 135 142Z" transform="translate(711.20,425) scale(0.0280,-0.0280)"/>
  <path d="M203 0 5 531H100L247 119L260 73L273 119L420 531H509L311 0Z" transform="translate(732.82,425) scale(0.0280,-0.0280)"/>
  <path d="M286 -12Q172 -12 107.5 61.5Q43 135 43 265Q43 398 108.0 471.0Q173 544 286 544Q400 544 464.5 469.5Q529 395 529 265Q529 132 464.0 60.0Q399 -12 286 -12ZM286 64Q360 64 399.5 115.5Q439 167 439 265Q439 362 399.0 415.0Q359 468 286 468Q212 468 172.5 415.5Q133 363 133 265Q133 169 173.0 116.5Q213 64 286 64Z" transform="translate(747.21,425) scale(0.0280,-0.0280)"/>
  <path d="M509 348H421Q411 407 374.0 437.5Q337 468 283 468Q210 468 171.5 416.0Q133 364 133 265Q133 168 173.0 115.5Q213 63 286 63Q340 63 376.0 92.0Q412 121 425 177H513Q496 81 435.5 34.5Q375 -12 284 -12Q171 -12 107.0 62.0Q43 136 43 265Q43 399 107.0 471.5Q171 544 283 544Q374 544 435.5 493.5Q497 443 509 348Z" transform="translate(763.23,425) scale(0.0280,-0.0280)"/>
  <path d="M358 602 287 676 215 602H133L232 720H340L440 602ZM529 173Q508 82 445.5 35.0Q383 -12 290 -12Q174 -12 108.5 61.5Q43 135 43 265Q43 399 107.5 471.5Q172 544 285 544Q397 544 461.0 471.5Q525 399 525 272V250H133Q137 161 177.5 112.5Q218 64 290 64Q409 64 437 173ZM285 468Q156 468 136 316H433Q424 389 385.5 428.5Q347 468 285 468Z" transform="translate(778.68,425) scale(0.0280,-0.0280)"/>
  <path d="M60 0V108H168V0Z" transform="translate(794.70,425) scale(0.0280,-0.0280)"/>
  </g>
  
  <rect x="80" y="540" width="340" height="44" fill="#0F2942"/>
  <g fill="#3DD485">
  <path d="M55 0V680H344Q467 680 537.5 623.5Q608 567 608 469Q608 361 526 311Q567 278 584 209L634 0H445L409 176Q401 215 385.0 228.0Q369 241 331 241H238V0ZM340 536H238V381H336Q379 381 400.0 402.0Q421 423 421.0 459.0Q421 495 400.5 515.5Q380 536 340 536Z" transform="translate(100.00,569) scale(0.0160,-0.0160)"/>
  <path d="M55 0V680H552V536H238V417H512V277H238V144H552V0Z" transform="translate(114.51,569) scale(0.0160,-0.0160)"/>
  <path d="M678 455H487Q461 549 366 549Q297 549 259.0 493.5Q221 438 221.0 339.0Q221 240 259.0 185.5Q297 131 366 131Q410 131 441.0 154.0Q472 177 485 219H677Q653 105 569.5 43.5Q486 -18 370 -18Q214 -18 124.0 77.5Q34 173 34.0 339.0Q34 505 124.5 601.5Q215 698 371 698Q489 698 573.0 635.0Q657 572 678 455Z" transform="translate(127.94,569) scale(0.0160,-0.0160)"/>
  <path d="M34 339Q34 505 127.5 601.5Q221 698 381.0 698.0Q541 698 634.5 601.5Q728 505 728 339Q728 174 634.5 78.0Q541 -18 381.0 -18.0Q221 -18 127.5 78.0Q34 174 34 339ZM541 339Q541 438 499.0 493.5Q457 549 381.0 549.0Q305 549 263.0 493.5Q221 438 221 339Q221 241 263.0 186.0Q305 131 381.0 131.0Q457 131 499.0 186.0Q541 241 541 339Z" transform="translate(143.17,569) scale(0.0160,-0.0160)"/>
  <path d="M55 0V680H344Q467 680 537.5 623.5Q608 567 608 469Q608 361 526 311Q567 278 584 209L634 0H445L409 176Q401 215 385.0 228.0Q369 241 331 241H238V0ZM340 536H238V381H336Q379 381 400.0 402.0Q421 423 421.0 459.0Q421 495 400.5 515.5Q380 536 340 536Z" transform="translate(159.38,569) scale(0.0160,-0.0160)"/>
  <path d="M226 0V532H22V680H612V532H408V0Z" transform="translate(173.89,569) scale(0.0160,-0.0160)"/>
  <path d="M513 0 474 116H227L188 0H4L247 680H465L708 0ZM330 419 274 254H428L372 419L351 498Z" transform="translate(188.05,569) scale(0.0160,-0.0160)"/>
  <path d="M55 0V680H329Q492 680 586.0 588.5Q680 497 680.0 339.0Q680 181 586.0 90.5Q492 0 329 0ZM329 148Q407 148 450.0 198.0Q493 248 493 339Q493 431 450.0 481.5Q407 532 329 532H238V148Z" transform="translate(203.44,569) scale(0.0160,-0.0160)"/>
  <path d="M34 339Q34 505 127.5 601.5Q221 698 381.0 698.0Q541 698 634.5 601.5Q728 505 728 339Q728 174 634.5 78.0Q541 -18 381.0 -18.0Q221 -18 127.5 78.0Q34 174 34 339ZM541 339Q541 438 499.0 493.5Q457 549 381.0 549.0Q305 549 263.0 493.5Q221 438 221 339Q221 241 263.0 186.0Q305 131 381.0 131.0Q457 131 499.0 186.0Q541 241 541 339Z" transform="translate(218.88,569) scale(0.0160,-0.0160)"/>
  <path d="M55 0V680H331Q461 680 535.0 618.5Q609 557 609.0 447.0Q609 337 535.0 275.5Q461 214 333 214H238V0ZM328 536H238V358H323Q422 358 422 447Q422 489 398.0 512.5Q374 536 328 536Z" transform="translate(242.03,569) scale(0.0160,-0.0160)"/>
  <path d="M55 0V680H344Q467 680 537.5 623.5Q608 567 608 469Q608 361 526 311Q567 278 584 209L634 0H445L409 176Q401 215 385.0 228.0Q369 241 331 241H238V0ZM340 536H238V381H336Q379 381 400.0 402.0Q421 423 421.0 459.0Q421 495 400.5 515.5Q380 536 340 536Z" transform="translate(256.22,569) scale(0.0160,-0.0160)"/>
  <path d="M513 0 474 116H227L188 0H4L247 680H465L708 0ZM330 419 274 254H428L372 419L351 498Z" transform="translate(270.74,569) scale(0.0160,-0.0160)"/>
  <path d="M198 680 340 261 361 174 382 261 524 680H708L463 0H248L4 680Z" transform="translate(293.07,569) scale(0.0160,-0.0160)"/>
  <path d="M34 339Q34 505 127.5 601.5Q221 698 381.0 698.0Q541 698 634.5 601.5Q728 505 728 339Q728 174 634.5 78.0Q541 -18 381.0 -18.0Q221 -18 127.5 78.0Q34 174 34 339ZM541 339Q541 438 499.0 493.5Q457 549 381.0 549.0Q305 549 263.0 493.5Q221 438 221 339Q221 241 263.0 186.0Q305 131 381.0 131.0Q457 131 499.0 186.0Q541 241 541 339Z" transform="translate(308.46,569) scale(0.0160,-0.0160)"/>
  <path d="M678 455H487Q461 549 366 549Q297 549 259.0 493.5Q221 438 221.0 339.0Q221 240 259.0 185.5Q297 131 366 131Q410 131 441.0 154.0Q472 177 485 219H677Q653 105 569.5 43.5Q486 -18 370 -18Q214 -18 124.0 77.5Q34 173 34.0 339.0Q34 505 124.5 601.5Q215 698 371 698Q489 698 573.0 635.0Q657 572 678 455Z" transform="translate(324.67,569) scale(0.0160,-0.0160)"/>
  <path d="M351 727 298 794 246 727H98L198 859H399L499 727ZM55 0V680H552V536H238V417H512V277H238V144H552V0Z" transform="translate(339.90,569) scale(0.0160,-0.0160)"/>
  </g>
  
  <!-- "recorte . news" — mint cobre só "news", ponto fora do mint -->
  <rect x="938.35" y="540" width="108.88" height="44" fill="#3DD485"/>
  <g fill="#0F2942">
  <path d="M52 0V538H205V463Q254 555 346 555Q382 555 399 538V409Q372 415 338 415Q205 415 205 278V0Z" transform="translate(795.00,572) scale(0.0380,-0.0380)"/>
  <path d="M559 177Q538 85 468.5 34.5Q399 -16 299 -16Q174 -16 101.5 60.0Q29 136 29 269Q29 405 100.0 480.0Q171 555 293 555Q414 555 484.5 479.5Q555 404 555 272V238H185Q191 174 220.0 140.0Q249 106 299 106Q376 106 399 177ZM293 433Q206 433 188 326H397Q379 433 293 433Z" transform="translate(810.50,572) scale(0.0380,-0.0380)"/>
  <path d="M532 344H379Q365 431 289 431Q186 431 186 269Q186 191 213.5 149.5Q241 108 293 108Q365 108 382 184H535Q518 86 452.5 35.0Q387 -16 290 -16Q169 -16 99.0 60.5Q29 137 29 269Q29 405 99.0 480.0Q169 555 289 555Q386 555 452.0 501.0Q518 447 532 344Z" transform="translate(832.81,572) scale(0.0380,-0.0380)"/>
  <path d="M29 269Q29 405 100.0 480.0Q171 555 293.0 555.0Q415 555 486.5 478.0Q558 401 558 269Q558 134 486.5 59.0Q415 -16 293.0 -16.0Q171 -16 100.0 60.0Q29 136 29 269ZM293 108Q401 108 401 269Q401 347 373.0 389.0Q345 431 293 431Q186 431 186 269Q186 191 213.5 149.5Q241 108 293 108Z" transform="translate(854.13,572) scale(0.0380,-0.0380)"/>
  <path d="M52 0V538H205V463Q254 555 346 555Q382 555 399 538V409Q372 415 338 415Q205 415 205 278V0Z" transform="translate(876.43,572) scale(0.0380,-0.0380)"/>
  <path d="M72 175V422H6V538H72V663H225V538H335V422H225V194Q225 152 241.5 132.5Q258 113 305 113H334V-2Q304 -16 242 -16Q72 -16 72 175Z" transform="translate(891.94,572) scale(0.0380,-0.0380)"/>
  <path d="M559 177Q538 85 468.5 34.5Q399 -16 299 -16Q174 -16 101.5 60.0Q29 136 29 269Q29 405 100.0 480.0Q171 555 293 555Q414 555 484.5 479.5Q555 404 555 272V238H185Q191 174 220.0 140.0Q249 106 299 106Q376 106 399 177ZM293 433Q206 433 188 326H397Q379 433 293 433Z" transform="translate(905.31,572) scale(0.0380,-0.0380)"/>
  <path d="M48 0V161H208V0Z" transform="translate(928.62,572) scale(0.0380,-0.0380)"/>
  <path d="M52 0V538H205V467Q256 555 361 555Q442 555 491.5 505.0Q541 455 541 359V0H388V328Q388 431 305 431Q260 431 232.5 396.5Q205 362 205 309V0Z" transform="translate(943.35,572) scale(0.0380,-0.0380)"/>
  <path d="M559 177Q538 85 468.5 34.5Q399 -16 299 -16Q174 -16 101.5 60.0Q29 136 29 269Q29 405 100.0 480.0Q171 555 293 555Q414 555 484.5 479.5Q555 404 555 272V238H185Q191 174 220.0 140.0Q249 106 299 106Q376 106 399 177ZM293 433Q206 433 188 326H397Q379 433 293 433Z" transform="translate(965.88,572) scale(0.0380,-0.0380)"/>
  <path d="M535 0 449 336 440 401 428 336 343 0H154L10 538H173L245 182L257 112L273 182L366 538H522L614 182L629 113L641 182L713 538H869L725 0Z" transform="translate(988.19,572) scale(0.0380,-0.0380)"/>
  <path d="M185 389Q185 365 209.5 350.5Q234 336 271.0 331.0Q308 326 351.5 316.0Q395 306 432.0 292.5Q469 279 493.5 246.0Q518 213 518 163Q518 84 451.5 34.0Q385 -16 280 -16Q174 -16 107.5 32.0Q41 80 26 177H179Q184 140 212.0 120.0Q240 100 284 100Q365 100 365 154Q365 178 341.0 192.0Q317 206 280.5 211.0Q244 216 202.0 225.5Q160 235 123.5 249.0Q87 263 63.0 296.5Q39 330 39 381Q39 453 96.0 504.0Q153 555 256 555Q358 555 422.5 506.5Q487 458 498 360H346Q333 438 251 438Q221 438 203.0 424.5Q185 411 185 389Z" transform="translate(1021.59,572) scale(0.0380,-0.0380)"/>
  </g>
</svg>
